<?xml version="1.0" encoding="UTF-8" standalone="no"?>
<svg xmlns:dc="http://purl.org/dc/elements/1.1/" xmlns:cc="http://creativecommons.org/ns#" xmlns:rdf="http://www.w3.org/1999/02/22-rdf-syntax-ns#" xmlns:svg="http://www.w3.org/2000/svg" xmlns="http://www.w3.org/2000/svg" xmlns:sodipodi="http://sodipodi.sourceforge.net/DTD/sodipodi-0.dtd" xmlns:inkscape="http://www.inkscape.org/namespaces/inkscape" height="16" viewBox="0 0 16 16.000001" width="16" version="1.1" id="svg8" sodipodi:docname="opensuse-16px.svg" inkscape:version="0.92.4 (5da689c313, 2019-01-14)">
    <metadata id="metadata14">
        <rdf:RDF>
            <cc:Work rdf:about="">
                <dc:format>image/svg+xml</dc:format>
                <dc:type rdf:resource="http://purl.org/dc/dcmitype/StillImage" />
                <dc:title />
            </cc:Work>
        </rdf:RDF>
    </metadata>
    <defs id="defs12" />
    <sodipodi:namedview pagecolor="#ffffff" bordercolor="#666666" borderopacity="1" objecttolerance="10" gridtolerance="10" guidetolerance="10" inkscape:pageopacity="0" inkscape:pageshadow="2" inkscape:window-width="640" inkscape:window-height="480" id="namedview10" showgrid="true" inkscape:showpageshadow="false" showborder="true" inkscape:current-layer="svg8">
        <inkscape:grid type="xygrid" id="grid823" spacingx="0.50000002" spacingy="0.50000002" />
    </sodipodi:namedview>
    <path style="fill:#73ba25;fill-rule:evenodd" d="M 8,0 C 5.70238,0.00259 3.516788,0.9929401 2,2.71875 V 3 L 4.0000002,3.25 4,2.0292969 c 0.542203,0.0033 1.845902,9.118e-4 3.626953,0.2167969 2.026564,0.2456437 4.22577,0.8136611 5.019531,1.6074218 C 13.950066,5.1570972 14.520263,7.5764407 14.5,8.5 c 0,0.2985593 2e-6,0.2988365 -0.25,0.5 C 14.16881,9.028885 13.852799,9.153346 13.761719,9.1875 13.503168,9.284457 13.200986,9.4056611 12.841797,9.5253906 12.123422,9.7648497 11.183334,10 10,10 9.166667,10 8.08495,9.5455672 7.171875,9.0585938 6.715337,8.8151067 6.300618,8.5678594 5.955078,8.375 5.782308,8.2785703 5.62841,8.1964362 5.484375,8.1308594 5.34034,8.0652826 5.229167,8 5,8 V 9 C 4.895833,9 4.97216,8.99722 5.06836,9.0410156 5.16456,9.0848136 5.30363,9.1589297 5.466798,9.25 5.793133,9.4321407 6.222163,9.6848935 6.703126,9.9414062 7.665049,10.454433 8.833333,11 10,11 c 1.316667,0 2.376576,-0.26485 3.158203,-0.525391 0.30675,-0.102249 0.533497,-0.190787 0.75,-0.273437 C 14.000002,12.499999 9.000002,13 8.339844,13 H 2 v 0.277344 C 3.516072,15.004604 5.701764,15.996419 8,16 12.418278,16 16,12.418278 16,8 16,3.581722 12.418278,0 8,0 Z" id="path823" inkscape:connector-curvature="0" sodipodi:nodetypes="cccccssccccsssscccccsccscccsc" />
    <path style="fill:#73ba25;fill-rule:evenodd" d="M 10.5 4 C 9.119288 4 8 5.1192881 8 6.5 C 8 7.8807119 9.119288 9 10.5 9 C 11.880712 9 13 7.8807119 13 6.5 C 13 5.1192881 11.880712 4 10.5 4 z M 10.5 4.75 A 1.75 1.75 0 0 1 12.25 6.5 A 1.75 1.75 0 0 1 10.5 8.25 A 1.75 1.75 0 0 1 8.75 6.5 A 1.75 1.75 0 0 1 10.5 4.75 z " id="path821" />
    <path style="fill:#73ba25;fill-rule:evenodd" d="M 10.75,5.75 C 10.335787,5.75 10,6.029822 10,6.375 10,6.720178 10.335787,7 10.75,7 11.164213,7 11.5,6.720178 11.5,6.375 11.5,6.029822 11.164213,5.75 10.75,5.75 Z" id="path998" />
    <circle style="opacity:1;stroke-width:29.63328171" id="circle2" r="0" cy="-90.517349" cx="61.837852" />
</svg>
